<svg xmlns="http://www.w3.org/2000/svg" viewBox="0 0 960 540" role="img" aria-label="Ask about my work interface illustration"><defs><linearGradient id="bg" x2="1" y2="1"><stop stop-color="#0b1a2b"/><stop offset="1" stop-color="#132e49"/></linearGradient></defs><rect width="960" height="540" rx="24" fill="url(#bg)"/><rect x="26" y="25" width="908" height="490" rx="17" fill="#0d2033" stroke="#2a4962"/><rect x="26" y="25" width="908" height="52" rx="17" fill="#142b43"/><circle cx="57" cy="51" r="6" fill="#46708c"/><circle cx="78" cy="51" r="6" fill="#46708c"/><circle cx="99" cy="51" r="6" fill="#46708c"/><text x="47" y="121" fill="#818cf8" font-family="Arial,sans-serif" font-size="16" font-weight="700" letter-spacing="3">AI PORTFOLIO ASSISTANT</text><text x="47" y="163" fill="#f8fafc" font-family="Arial,sans-serif" font-size="32" font-weight="700">Ask about my work</text><rect x="47" y="195" width="535" height="275" rx="15" fill="#10283f" stroke="#2b4860"/><text x="73" y="230" fill="#9fb5cb" font-family="Arial,sans-serif" font-size="16">Activity &amp; trends</text><path d="M73 420 H548 M73 365 H548 M73 310 H548 M73 255 H548" stroke="#244057" stroke-width="2"/><path d="M10 98 L80 98 L80 72 L185 72 L185 42 L310 42 L310 24 L375 24" transform="translate(65 278) scale(1.23 1.18)" fill="none" stroke="#818cf8" stroke-width="4" stroke-linecap="round" stroke-linejoin="round"/><rect x="605" y="195" width="308" height="80" rx="13" fill="#17354c"/><rect x="605" y="292" width="308" height="80" rx="13" fill="#17354c"/><rect x="605" y="389" width="308" height="80" rx="13" fill="#17354c"/><circle cx="630" cy="235" r="7" fill="#818cf8"/><text x="650" y="242" fill="#e8f1f9" font-family="Arial,sans-serif" font-size="18" font-weight="600">Projects</text><circle cx="630" cy="332" r="7" fill="#818cf8"/><text x="650" y="339" fill="#e8f1f9" font-family="Arial,sans-serif" font-size="18" font-weight="600">Skills</text><circle cx="630" cy="429" r="7" fill="#818cf8"/><text x="650" y="436" fill="#e8f1f9" font-family="Arial,sans-serif" font-size="18" font-weight="600">Experience</text></svg>